<svg width="227" height="227" viewBox="0 0 227 227" fill="none" xmlns="http://www.w3.org/2000/svg">
<path fill-rule="evenodd" clip-rule="evenodd" d="M59.213 199.94L16 25L189.23 74.874L59.213 199.94Z" stroke="black" stroke-width="4" stroke-miterlimit="10" stroke-linejoin="round"/>
<path fill-rule="evenodd" clip-rule="evenodd" d="M102.583 49.942L124.174 137.438L37.607 112.493L102.583 49.942Z" stroke="black" stroke-width="4" stroke-miterlimit="10" stroke-linejoin="round"/>
<path fill-rule="evenodd" clip-rule="evenodd" d="M59.651 37.483L70.375 80.948L27.367 68.602L59.651 37.483Z" stroke="black" stroke-width="4" stroke-miterlimit="10" stroke-linejoin="round"/>
<path fill-rule="evenodd" clip-rule="evenodd" d="M145.663 62.26L156.387 105.725L113.379 93.379L145.663 62.26Z" stroke="black" stroke-width="4" stroke-miterlimit="10" stroke-linejoin="round"/>
<path fill-rule="evenodd" clip-rule="evenodd" d="M81.108 124.39L91.832 167.855L48.824 155.509L81.108 124.39Z" stroke="black" stroke-width="4" stroke-miterlimit="10" stroke-linejoin="bevel"/>
<g clip-path="url(#clip0_5_2)">
<path d="M99.733 89.3495L101.539 87.5732C101.789 87.3276 101.792 86.9273 101.547 86.6776C101.301 86.4279 100.901 86.4245 100.651 86.6701L98.8448 88.4464C98.8417 88.4495 98.8407 88.454 98.8371 88.4576C98.1417 87.8037 97.3862 87.2071 96.571 86.6826C96.5729 86.6799 96.5751 86.6786 96.5765 86.6755L97.8612 84.4927C98.0384 84.1914 97.9382 83.8032 97.6365 83.6255C97.3348 83.4479 96.9488 83.5486 96.7693 83.8503L95.4846 86.0331C95.4819 86.0376 95.4823 86.0425 95.48 86.0465C94.6454 85.5998 93.76 85.2225 92.8292 84.9245C92.8305 84.9196 92.8342 84.9151 92.8351 84.9098L93.5111 82.4683C93.6049 82.131 93.4071 81.7818 93.0698 81.689C92.732 81.5957 92.3815 81.7939 92.2904 82.1303L91.6144 84.5717C91.6125 84.5789 91.6143 84.5861 91.6129 84.5937C90.6608 84.3699 89.7076 84.2352 88.7617 84.1883C88.7617 84.1829 88.7649 84.178 88.7649 84.1727L88.7861 81.6398C88.789 81.2896 88.5083 81.0042 88.1581 81.0013C87.8079 80.9984 87.5226 81.279 87.5196 81.6292L87.4985 84.1621C87.4984 84.1684 87.5015 84.1733 87.5019 84.1791C86.5325 84.2096 85.5772 84.3265 84.6449 84.5292C84.6436 84.5243 84.6445 84.5189 84.6428 84.5135L84.0076 82.0612C83.9204 81.7223 83.575 81.5193 83.2361 81.6074C82.8977 81.695 82.6933 82.0399 82.7818 82.3792L83.417 84.8316C83.4188 84.8379 83.4232 84.8424 83.4254 84.8482C82.5027 85.1276 81.6094 85.4892 80.7561 85.9286C80.7531 85.9227 80.7527 85.916 80.7496 85.9101L79.5015 83.7062C79.3293 83.402 78.9424 83.2948 78.6382 83.467C78.3363 83.6387 78.2269 84.026 78.399 84.3302L79.6471 86.5342C79.6507 86.5405 79.6569 86.5441 79.6609 86.55C78.8839 87.0317 78.1466 87.5782 77.4613 88.1891C77.4075 88.1958 77.3554 88.2062 77.3029 88.2196L75.5732 86.4608C75.3276 86.2111 74.9273 86.2077 74.6776 86.4533C74.4279 86.6989 74.4245 87.0992 74.6701 87.3489L76.3998 89.1078C76.3855 89.1591 76.3748 89.2106 76.3671 89.2633C75.7494 89.9313 75.1884 90.658 74.6884 91.4348C74.6835 91.4317 74.6809 91.4263 74.6755 91.4235L72.4922 90.1383C72.1909 89.9603 71.8041 90.0609 71.6251 90.3631C71.4479 90.6644 71.5481 91.0526 71.8498 91.2302L74.0327 92.5149C74.0376 92.5181 74.0439 92.5182 74.0488 92.5214C73.6024 93.3564 73.2265 94.2423 72.9285 95.174C72.9218 95.1717 72.9165 95.1663 72.9093 95.1645L70.4679 94.4884C70.1301 94.3942 69.7814 94.5933 69.6894 94.9298C69.5957 95.2671 69.7934 95.6163 70.1308 95.7091L72.5722 96.3852C72.5775 96.387 72.5829 96.3862 72.5883 96.3871C72.3645 97.3391 72.2329 98.292 72.1865 99.2374C72.1816 99.237 72.1776 99.2347 72.1727 99.2342L69.6398 99.213C69.2896 99.2101 69.0042 99.4908 69.0013 99.841C68.9984 100.191 69.279 100.477 69.6292 100.479L72.1621 100.501C72.1648 100.501 72.1675 100.499 72.1706 100.499C72.201 101.469 72.3238 102.424 72.5274 103.356C72.523 103.357 72.5189 103.356 72.514 103.357L70.0616 103.992C69.7223 104.079 69.5193 104.425 69.6073 104.764C69.6954 105.103 70.0408 105.306 70.3792 105.218L72.8316 104.583C72.8365 104.582 72.8406 104.579 72.8455 104.577C73.1253 105.499 73.486 106.393 73.925 107.246C73.9205 107.248 73.9146 107.248 73.9101 107.25L71.7062 108.499C71.4042 108.671 71.2948 109.058 71.467 109.362C71.6391 109.666 72.026 109.773 72.3302 109.601L74.5342 108.353C74.5387 108.35 74.5419 108.346 74.5464 108.344C75.0519 109.159 75.6326 109.928 76.2792 110.642C76.2756 110.646 76.2706 110.647 76.267 110.65L74.4608 112.427C74.2111 112.672 74.2077 113.073 74.4533 113.322C74.6989 113.572 75.0992 113.575 75.3489 113.33L77.1552 111.554C77.1583 111.55 77.1593 111.546 77.1629 111.542C77.8583 112.196 78.6142 112.793 79.4294 113.318C79.4276 113.321 79.4253 113.322 79.4235 113.325L78.1383 115.508C77.9612 115.809 78.0614 116.197 78.3631 116.375C78.6153 116.524 78.9283 116.477 79.1279 116.281C79.1667 116.243 79.2011 116.199 79.2302 116.15L80.5149 113.967C80.5177 113.963 80.5173 113.958 80.5195 113.954C81.3542 114.401 82.24 114.778 83.1713 115.076C83.1695 115.081 83.1658 115.085 83.164 115.09L82.488 117.532C82.3947 117.869 82.592 118.217 82.9298 118.311C83.1563 118.373 83.3871 118.305 83.5433 118.151C83.6201 118.076 83.6787 117.98 83.7091 117.869L84.3852 115.428C84.387 115.421 84.3853 115.413 84.3867 115.406C85.3387 115.63 86.292 115.764 87.2379 115.811C87.2379 115.817 87.2347 115.822 87.2346 115.827L87.2135 118.36C87.2106 118.71 87.4912 118.995 87.8414 118.998C88.0161 119 88.1752 118.93 88.2908 118.817C88.4064 118.703 88.4785 118.545 88.4799 118.37L88.5011 115.837C88.5011 115.831 88.498 115.826 88.4976 115.82C89.467 115.79 90.4233 115.673 91.356 115.47C91.3573 115.476 91.3555 115.48 91.3573 115.486L91.9924 117.938C92.0805 118.277 92.4259 118.48 92.7643 118.392C92.8756 118.364 92.9724 118.307 93.0492 118.231C93.2054 118.077 93.2776 117.847 93.2186 117.62L92.5834 115.168C92.5817 115.162 92.5773 115.157 92.5755 115.151C93.4986 114.871 94.392 114.51 95.2452 114.07C95.2483 114.076 95.2482 114.083 95.2513 114.089L96.4994 116.293C96.6716 116.597 97.0585 116.704 97.3627 116.532C97.4122 116.504 97.4564 116.47 97.4952 116.432C97.6943 116.236 97.7467 115.924 97.6019 115.669L96.3538 113.465C96.3502 113.459 96.344 113.455 96.34 113.449C97.1562 112.943 97.9264 112.364 98.6412 111.716C98.6443 111.722 98.646 111.728 98.6505 111.733L100.427 113.539C100.672 113.789 101.073 113.792 101.322 113.547C101.572 113.301 101.575 112.901 101.33 112.651L99.5536 110.845C99.5491 110.84 99.5433 110.839 99.5393 110.835C100.193 110.139 100.787 109.381 101.312 108.565C101.317 108.568 101.32 108.573 101.325 108.576L103.508 109.861C103.76 110.01 104.073 109.963 104.273 109.767C104.311 109.729 104.346 109.685 104.375 109.636C104.552 109.335 104.452 108.947 104.15 108.769L101.967 107.484C101.962 107.481 101.956 107.482 101.951 107.479C102.398 106.643 102.774 105.757 103.072 104.825C103.078 104.827 103.084 104.833 103.091 104.835L105.532 105.511C105.759 105.573 105.989 105.505 106.146 105.351C106.222 105.276 106.281 105.18 106.311 105.069C106.405 104.732 106.207 104.383 105.87 104.29L103.429 103.614C103.423 103.612 103.418 103.614 103.413 103.613C103.636 102.661 103.768 101.707 103.814 100.762C103.819 100.762 103.823 100.764 103.828 100.765L106.361 100.786C106.536 100.788 106.695 100.718 106.81 100.604C106.926 100.491 106.998 100.333 107 100.158C107.003 99.8079 106.722 99.5226 106.372 99.5196L103.839 99.4985C103.836 99.4985 103.833 99.5002 103.83 99.4998C103.8 98.5304 103.677 97.5754 103.473 96.6431C103.478 96.6422 103.482 96.6436 103.487 96.6423L105.939 96.0071C106.051 95.9785 106.147 95.9215 106.224 95.846C106.38 95.6924 106.453 95.4623 106.394 95.2352C106.305 94.8964 105.96 94.6933 105.622 94.7809L103.169 95.4161C103.164 95.4174 103.161 95.421 103.156 95.4223C102.876 94.4996 102.515 93.6058 102.076 92.7526C102.08 92.75 102.086 92.7504 102.091 92.7478L104.295 91.4997C104.344 91.4714 104.388 91.4378 104.427 91.3996C104.626 91.2037 104.679 90.8911 104.534 90.6364C104.362 90.3322 103.975 90.2251 103.671 90.3972L101.467 91.6454C101.462 91.648 101.459 91.6525 101.455 91.656C100.949 90.8403 100.369 90.071 99.7213 89.3566C99.7244 89.3544 99.7294 89.3531 99.733 89.3495ZM91.5496 87.1822C95.8475 88.3721 99.058 91.5581 100.483 95.4578L93.8133 97.185C93.7689 97.1967 93.7293 97.2161 93.6875 97.2314C93.6303 97.1136 93.5757 96.9949 93.5104 96.8797C92.6776 95.4078 91.3214 94.3485 89.6905 93.8969C87.9283 93.4093 86.0567 93.7291 84.5514 94.7058C84.5217 94.6693 84.4961 94.6306 84.4623 94.5963L79.624 89.6766C82.9422 86.9934 87.3973 86.0328 91.5496 87.1822ZM85.3337 97.2924C86.2996 96.3426 87.7093 95.9768 89.0136 96.3383C89.9917 96.6094 90.8059 97.245 91.3064 98.1278C91.8065 99.0111 91.9332 100.036 91.6621 101.014C91.4839 101.657 91.1395 102.242 90.6663 102.708C89.7004 103.657 88.2907 104.023 86.9864 103.662C86.0083 103.391 85.1941 102.755 84.6936 101.872C84.1935 100.989 84.0668 99.964 84.3379 98.986C84.5161 98.3434 84.8605 97.7578 85.3337 97.2924ZM75.1822 96.4504C75.6929 94.6068 76.5983 92.9027 77.816 91.4511L82.6561 96.3726C82.6894 96.4065 82.7277 96.4328 82.7637 96.4622C82.3824 97.0273 82.082 97.6469 81.8983 98.3108C81.4462 99.9404 81.6568 101.648 82.4905 103.12C83.1132 104.221 84.0299 105.091 85.1345 105.649C85.1194 105.688 85.1003 105.724 85.0892 105.766L83.2468 112.419C76.9209 110.001 73.3397 103.106 75.1822 96.4504ZM100.818 103.55C100.194 105.8 98.9919 107.849 97.3383 109.475C94.2591 112.503 89.8923 113.829 85.6896 113.091L87.5306 106.442C87.5436 106.395 87.5471 106.349 87.5546 106.302C89.3459 106.426 91.1394 105.795 92.4453 104.511C93.2324 103.737 93.8053 102.761 94.1022 101.69C94.2883 101.018 94.3558 100.334 94.3198 99.6582C94.3628 99.6514 94.4054 99.6495 94.4485 99.6382L101.121 97.9101C101.415 99.7376 101.343 101.652 100.818 103.55Z" fill="black"/>
</g>
<defs>
<clipPath id="clip0_5_2">
<rect width="38" height="38" fill="white" transform="translate(61.1309 99.7757) rotate(-44.5218)"/>
</clipPath>
</defs>
</svg>
