<svg width="227" height="227" viewBox="0 0 227 227" fill="none" xmlns="http://www.w3.org/2000/svg">
<path fill-rule="evenodd" clip-rule="evenodd" d="M71.984 204.863L28.771 29.9227L202.001 79.7967L71.984 204.863Z" stroke="black" stroke-width="4" stroke-miterlimit="10" stroke-linejoin="round"/>
<path fill-rule="evenodd" clip-rule="evenodd" d="M115.354 54.8647L136.945 142.361L50.378 117.416L115.354 54.8647Z" stroke="black" stroke-width="4" stroke-miterlimit="10" stroke-linejoin="round"/>
<path fill-rule="evenodd" clip-rule="evenodd" d="M72.422 42.4057L83.146 85.8707L40.138 73.5247L72.422 42.4057Z" stroke="black" stroke-width="4" stroke-miterlimit="10" stroke-linejoin="round"/>
<path fill-rule="evenodd" clip-rule="evenodd" d="M158.434 67.1827L169.158 110.648L126.15 98.3017L158.434 67.1827Z" stroke="black" stroke-width="4" stroke-miterlimit="10" stroke-linejoin="round"/>
<path fill-rule="evenodd" clip-rule="evenodd" d="M93.879 129.313L104.603 172.778L61.595 160.432L93.879 129.313Z" stroke="black" stroke-width="4" stroke-miterlimit="10" stroke-linejoin="bevel"/>
<path d="M112.323 93.9235L114.097 92.1148C114.342 91.8647 114.338 91.4644 114.088 91.2191C113.838 90.9739 113.438 90.9778 113.192 91.2279L111.419 93.0367C111.415 93.0398 111.415 93.0443 111.411 93.0479C110.704 92.4068 109.938 91.824 109.113 91.3144C109.115 91.3117 109.117 91.3103 109.118 91.3072L110.363 89.1014C110.535 88.797 110.428 88.4106 110.123 88.2385C109.818 88.0664 109.434 88.174 109.26 88.4789L108.015 90.6847C108.013 90.6892 108.013 90.6941 108.011 90.6982C107.168 90.2666 106.276 89.9054 105.34 89.6244C105.341 89.6194 105.345 89.6149 105.346 89.6095L105.977 87.1563C106.065 86.8173 105.861 86.4717 105.522 86.385C105.183 86.2979 104.836 86.5024 104.751 86.8404L104.119 89.2937C104.117 89.3009 104.119 89.308 104.118 89.3157C103.162 89.1091 102.206 88.9917 101.26 88.962C101.26 88.9567 101.263 88.9517 101.263 88.9463L101.238 86.4135C101.235 86.0633 100.949 85.7831 100.599 85.7865C100.248 85.7899 99.9682 86.0757 99.9716 86.4259L99.9964 88.9587C99.9965 88.965 99.9997 88.9699 100 88.9757C99.0315 89.0237 98.0784 89.158 97.1499 89.3776C97.1485 89.3726 97.1494 89.3673 97.1475 89.3619L96.468 86.9215C96.3747 86.5843 96.0257 86.3875 95.6884 86.4817C95.3517 86.5754 95.1536 86.924 95.2482 87.2617L95.9278 89.7021C95.9296 89.7084 95.9341 89.7128 95.9364 89.7186C95.019 90.0147 94.1323 90.3924 93.2872 90.8471C93.284 90.8414 93.2835 90.8346 93.2803 90.8288L91.9924 88.6478C91.8148 88.3468 91.426 88.2467 91.125 88.4243C90.8262 88.6015 90.7239 88.9908 90.9015 89.2918L92.1894 91.4728C92.193 91.479 92.1993 91.4825 92.2034 91.4883C91.4352 91.984 90.708 92.5438 90.0338 93.1671C89.9802 93.1748 89.9283 93.186 89.8761 93.2004L88.1148 91.4732C87.8647 91.228 87.4644 91.2319 87.2192 91.482C86.9739 91.7321 86.9779 92.1324 87.2279 92.3776L88.9892 94.1048C88.9758 94.1564 88.966 94.208 88.9594 94.2609C88.3538 94.94 87.8061 95.6767 87.3203 96.4625C87.3153 96.4594 87.3126 96.4541 87.3072 96.4514L85.101 95.206C84.7965 95.0335 84.4115 95.1411 84.238 95.4465C84.0664 95.7509 84.1736 96.1373 84.4785 96.3094L86.6843 97.5543C86.6892 97.5574 86.6955 97.5574 86.7004 97.5604C86.2693 98.4035 85.9095 99.296 85.6284 100.233C85.6217 100.231 85.6163 100.225 85.6091 100.224L83.1558 99.5921C82.8164 99.5041 82.4713 99.7094 82.3855 100.048C82.2979 100.386 82.5019 100.732 82.8409 100.819L85.2942 101.45C85.2996 101.452 85.3049 101.451 85.3103 101.452C85.1038 102.408 84.9895 103.363 84.9603 104.309C84.9553 104.309 84.9513 104.307 84.9463 104.306L82.4135 104.331C82.0633 104.334 81.7831 104.62 81.7865 104.97C81.7899 105.321 82.0757 105.601 82.4259 105.597L84.9587 105.573C84.9614 105.573 84.9641 105.571 84.9672 105.571C85.0152 106.54 85.1553 107.492 85.3758 108.421C85.3713 108.422 85.3673 108.421 85.3624 108.422L82.9219 109.101C82.5843 109.194 82.3875 109.544 82.4817 109.881C82.5759 110.219 82.9249 110.415 83.2617 110.322L85.7021 109.642C85.707 109.641 85.711 109.638 85.716 109.636C86.0125 110.553 86.3893 111.44 86.8436 112.285C86.8391 112.287 86.8333 112.287 86.8289 112.29L84.6479 113.577C84.3491 113.756 84.2468 114.144 84.4244 114.445C84.602 114.746 84.9908 114.846 85.2918 114.668L87.4728 113.381C87.4773 113.378 87.4804 113.374 87.4848 113.371C88.005 114.177 88.5996 114.935 89.259 115.638C89.2554 115.641 89.2505 115.643 89.247 115.646L87.4733 117.455C87.228 117.705 87.232 118.106 87.482 118.351C87.7321 118.596 88.1324 118.592 88.3776 118.342L90.1514 116.533C90.1545 116.53 90.1553 116.526 90.1589 116.522C90.866 117.163 91.6327 117.746 92.4572 118.256C92.4555 118.259 92.4532 118.26 92.4515 118.263L91.2061 120.469C91.0344 120.773 91.1416 121.16 91.4465 121.332C91.7014 121.476 92.0135 121.424 92.2095 121.224C92.2476 121.185 92.2812 121.141 92.3094 121.091L93.5544 118.886C93.557 118.881 93.5565 118.876 93.5587 118.872C94.4013 119.304 95.2938 119.665 96.2304 119.946C96.2286 119.951 96.2251 119.955 96.2233 119.96L95.5917 122.414C95.5045 122.752 95.7081 123.097 96.0475 123.184C96.2752 123.243 96.5046 123.171 96.6581 123.014C96.7335 122.937 96.7903 122.84 96.8188 122.729L97.4504 120.276C97.4521 120.269 97.4503 120.261 97.4515 120.254C98.4075 120.46 99.363 120.578 100.31 120.607C100.31 120.613 100.307 120.618 100.307 120.623L100.331 123.156C100.335 123.506 100.621 123.786 100.971 123.783C101.145 123.781 101.303 123.709 101.417 123.593C101.53 123.477 101.6 123.318 101.598 123.144L101.573 120.611C101.573 120.604 101.57 120.6 101.569 120.594C102.538 120.546 103.492 120.411 104.421 120.191C104.422 120.197 104.421 120.202 104.422 120.207L105.102 122.648C105.196 122.985 105.545 123.182 105.882 123.088C105.993 123.057 106.088 122.998 106.164 122.922C106.317 122.765 106.385 122.534 106.322 122.308L105.643 119.867C105.641 119.861 105.636 119.857 105.634 119.85C106.552 119.554 107.439 119.177 108.284 118.721C108.287 118.727 108.287 118.734 108.291 118.74L109.578 120.921C109.756 121.222 110.145 121.322 110.446 121.145C110.495 121.116 110.538 121.081 110.577 121.042C110.772 120.843 110.819 120.529 110.669 120.277L109.381 118.096C109.378 118.09 109.372 118.086 109.367 118.081C110.174 117.56 110.934 116.967 111.637 116.306C111.64 116.312 111.642 116.319 111.646 116.323L113.455 118.097C113.705 118.342 114.106 118.338 114.351 118.088C114.596 117.838 114.592 117.437 114.342 117.192L112.533 115.419C112.529 115.414 112.523 115.413 112.519 115.409C113.16 114.702 113.74 113.933 114.25 113.107C114.255 113.11 114.258 113.115 114.263 113.118L116.469 114.363C116.724 114.507 117.036 114.455 117.232 114.255C117.27 114.216 117.304 114.172 117.332 114.123C117.504 113.818 117.396 113.432 117.091 113.26L114.886 112.015C114.881 112.012 114.874 112.013 114.87 112.009C115.301 111.166 115.661 110.273 115.941 109.336C115.948 109.338 115.954 109.344 115.961 109.345L118.414 109.977C118.642 110.035 118.871 109.963 119.025 109.807C119.1 109.73 119.157 109.633 119.185 109.521C119.273 109.183 119.069 108.837 118.73 108.75L116.277 108.119C116.271 108.117 116.266 108.119 116.261 108.118C116.467 107.162 116.581 106.206 116.611 105.26C116.615 105.26 116.62 105.262 116.624 105.263L119.157 105.238C119.332 105.236 119.49 105.164 119.603 105.048C119.717 104.932 119.786 104.773 119.784 104.599C119.781 104.248 119.495 103.968 119.145 103.972L116.612 103.996C116.609 103.996 116.607 103.998 116.604 103.998C116.556 103.029 116.416 102.077 116.195 101.148C116.2 101.147 116.204 101.148 116.208 101.147L118.649 100.468C118.76 100.437 118.855 100.378 118.931 100.301C119.084 100.145 119.152 99.9135 119.089 99.6875C118.995 99.3503 118.646 99.1535 118.309 99.2473L115.869 99.9268C115.864 99.9282 115.86 99.9318 115.855 99.9332C115.559 99.0158 115.182 98.1287 114.727 97.2836C114.732 97.2808 114.738 97.2812 114.742 97.2785L116.923 95.9906C116.972 95.9615 117.015 95.927 117.054 95.8881C117.249 95.6887 117.296 95.3752 117.146 95.1232C116.969 94.8222 116.58 94.7221 116.279 94.8997L114.098 96.1875C114.094 96.1903 114.091 96.1948 114.086 96.1984C113.566 95.392 112.972 94.6333 112.311 93.9308C112.315 93.9285 112.319 93.9272 112.323 93.9235ZM104.102 91.9049C108.42 93.0167 111.688 96.1439 113.184 100.017L106.546 101.865C106.502 101.878 106.463 101.898 106.421 101.914C106.362 101.797 106.305 101.679 106.238 101.565C105.379 100.109 104.003 99.0742 102.365 98.6522C100.594 98.1966 98.7283 98.5503 97.241 99.5542C97.2106 99.5182 97.1843 99.4799 97.1499 99.4462L92.2232 94.6151C95.4922 91.8722 99.9292 90.831 104.102 91.9049ZM98.07 102.126C99.0185 101.159 100.421 100.768 101.732 101.106C102.715 101.359 103.54 101.979 104.057 102.853C104.573 103.727 104.718 104.75 104.465 105.732C104.298 106.378 103.965 106.97 103.5 107.444C102.551 108.411 101.149 108.802 99.8379 108.464C98.8551 108.211 98.0294 107.59 97.513 106.717C96.9971 105.843 96.8518 104.82 97.1051 103.837C97.2716 103.192 97.6053 102.6 98.07 102.126ZM87.9049 101.468C88.3821 99.6158 89.2565 97.8955 90.4477 96.4221L95.3762 101.255C95.4101 101.288 95.4488 101.314 95.4854 101.343C95.1144 101.915 94.8253 102.539 94.6536 103.207C94.2312 104.844 94.4727 106.548 95.3329 108.005C95.9755 109.094 96.9078 109.947 98.0224 110.485C98.008 110.524 97.9895 110.561 97.9792 110.602L96.2577 117.288C89.889 114.985 86.1834 108.156 87.9049 101.468ZM113.665 108.102C113.083 110.363 111.917 112.433 110.294 114.089C107.27 117.172 102.928 118.577 98.7122 117.915L100.432 111.234C100.445 111.187 100.447 111.141 100.454 111.094C102.247 111.185 104.029 110.522 105.311 109.215C106.084 108.427 106.639 107.44 106.917 106.364C107.091 105.689 107.146 105.004 107.098 104.329C107.14 104.321 107.183 104.318 107.226 104.306L113.866 102.458C114.193 104.279 114.156 106.195 113.665 108.102Z" fill="black"/>
</svg>
